<?xml version="1.0" standalone="no"?>
<!DOCTYPE svg PUBLIC "-//W3C//DTD SVG 20010904//EN"
 "http://www.w3.org/TR/2001/REC-SVG-20010904/DTD/svg10.dtd">
<svg version="1.0" xmlns="http://www.w3.org/2000/svg"
 width="1080.000000pt" height="1080.000000pt" viewBox="0 0 1080.000000 1080.000000"
 preserveAspectRatio="xMidYMid meet">
<metadata>
Created by potrace 1.16, written by Peter Selinger 2001-2019
</metadata>
<g transform="translate(0.000000,1080.000000) scale(0.100000,-0.100000)"
fill="#000000" stroke="none">
<path d="M10748 6971 c-31 -20 -58 -29 -84 -28 -22 0 -61 -7 -89 -15 -77 -24
-168 -57 -187 -68 -10 -6 -34 -10 -54 -10 -19 0 -44 -5 -55 -11 -11 -6 -47
-11 -79 -13 -33 -1 -62 -5 -66 -9 -4 -4 -18 -7 -31 -7 -13 0 -31 -5 -41 -11
-13 -8 -32 -9 -68 -1 -43 10 -52 9 -76 -8 -16 -12 -41 -19 -65 -18 -99 3 -262
-8 -275 -20 -8 -6 -37 -12 -64 -11 -68 0 -159 -7 -171 -14 -5 -3 -43 -3 -84 2
-41 4 -87 4 -104 -1 -19 -5 -47 -4 -77 4 -35 9 -53 9 -70 1 -13 -7 -45 -13
-73 -16 -27 -2 -67 -12 -88 -21 -24 -12 -68 -20 -125 -22 -267 -11 -434 -34
-466 -65 -6 -5 -20 -9 -33 -9 -25 0 -71 -18 -94 -37 -8 -7 -48 -17 -89 -23
-41 -6 -81 -17 -89 -24 -31 -27 -77 -44 -138 -51 -37 -4 -73 -15 -87 -26 -13
-10 -35 -19 -48 -19 -13 0 -29 -5 -34 -10 -11 -11 -115 -22 -189 -21 -22 1
-54 -6 -71 -14 -33 -15 -191 -30 -288 -27 -32 1 -64 -2 -70 -6 -43 -32 -174
-61 -328 -72 -124 -9 -176 -17 -194 -31 -6 -5 -88 -15 -182 -23 -95 -7 -178
-18 -184 -24 -7 -5 -37 -10 -66 -9 -29 0 -58 -5 -64 -11 -7 -7 -31 -12 -54
-12 -22 0 -54 -4 -70 -9 -16 -5 -54 -16 -84 -25 -35 -11 -71 -31 -100 -57 -37
-33 -50 -39 -73 -35 -16 3 -41 0 -56 -9 -17 -8 -69 -16 -127 -19 -119 -5 -213
-22 -236 -43 -13 -12 -30 -14 -70 -9 -29 4 -62 6 -73 6 -35 -2 -39 -2 -79 6
-30 6 -40 4 -48 -9 -5 -10 -26 -20 -48 -23 -30 -5 -40 -11 -42 -28 -3 -18 -9
-21 -39 -18 -20 2 -53 -4 -74 -12 -21 -9 -44 -16 -52 -16 -8 0 -31 -13 -51
-30 -37 -30 -94 -45 -252 -69 -32 -5 -76 -21 -105 -39 -27 -17 -70 -43 -93
-58 -25 -15 -47 -23 -50 -18 -14 20 -68 51 -112 63 -25 7 -54 19 -65 27 -25
18 -67 18 -112 -1 -45 -19 -167 -45 -211 -45 -18 0 -40 -4 -50 -9 -9 -5 -43
-19 -74 -31 -53 -20 -91 -25 -249 -32 -31 -2 -62 -8 -70 -15 -14 -11 -57 -6
-101 12 -9 3 -25 2 -35 -3 -13 -8 -34 -5 -73 10 -114 42 -143 43 -228 7 -42
-17 -96 -44 -120 -60 -24 -16 -50 -29 -58 -29 -9 0 -27 -9 -41 -20 -14 -11
-35 -20 -47 -20 -23 0 -92 -22 -102 -33 -4 -4 -14 -7 -21 -7 -8 0 -19 -5 -26
-10 -7 -6 -21 -17 -31 -24 -24 -16 -15 -46 14 -46 11 0 20 4 20 9 0 16 28 20
82 12 43 -7 55 -6 61 6 5 9 21 14 40 12 37 -2 69 9 62 22 -3 4 4 13 15 19 12
6 20 7 20 1 0 -15 41 -24 53 -12 15 15 44 14 49 -1 3 -9 11 -9 34 -1 16 6 49
14 74 18 33 4 48 11 55 27 14 30 66 67 72 51 7 -18 70 -28 88 -13 9 8 15 8 15
2 0 -13 -19 -18 -93 -27 -84 -10 -69 -29 24 -33 82 -2 110 7 91 31 -10 12 -9
16 4 21 27 10 34 7 34 -19 0 -26 1 -26 68 -23 54 2 67 6 66 19 -1 9 5 16 12
16 8 0 14 -9 14 -19 0 -25 41 -24 90 4 34 20 43 21 70 11 24 -9 33 -9 44 2 7
8 16 11 20 8 3 -4 6 0 6 8 0 11 2 11 10 -1 8 -12 10 -11 10 7 0 25 34 39 68
29 11 -4 29 2 45 14 15 12 32 18 38 15 5 -4 19 1 30 11 17 15 23 16 40 6 12
-8 26 -9 37 -4 24 12 271 5 304 -9 19 -8 28 -19 28 -35 0 -31 -13 -37 -45 -20
-34 18 -86 5 -124 -30 -29 -27 -53 -31 -70 -10 -6 7 -32 19 -56 26 -39 11 -51
10 -88 -4 -23 -9 -55 -16 -69 -16 -15 0 -39 -5 -55 -11 -15 -6 -54 -18 -87
-25 -32 -8 -70 -23 -83 -34 -28 -21 -53 -26 -53 -10 0 6 -7 10 -16 10 -14 0
-14 3 -4 15 10 12 10 19 2 27 -9 9 -12 8 -12 -5 0 -13 -9 -17 -40 -17 -38 0
-52 -12 -30 -25 12 -7 -9 -55 -24 -55 -7 0 -29 9 -51 20 -57 29 -144 27 -182
-3 -23 -20 -37 -23 -79 -20 -28 2 -71 -1 -95 -7 -24 -6 -109 -12 -189 -13 -92
-2 -153 -8 -168 -16 -24 -13 -186 -5 -177 8 2 4 -16 6 -41 6 -31 -2 -44 2 -44
12 0 7 7 16 15 19 19 8 19 24 0 24 -8 0 -15 -7 -15 -16 0 -10 -6 -14 -17 -10
-16 5 -120 9 -166 7 -15 -1 -15 -4 -5 -21 9 -15 20 -19 36 -15 12 3 22 1 22
-5 0 -7 -19 -10 -48 -9 -26 1 -57 -3 -69 -9 -16 -9 -34 -9 -65 -2 -24 5 -58
10 -76 10 -19 0 -39 8 -49 20 -9 11 -41 27 -70 36 -38 12 -52 21 -49 31 4 8 1
11 -5 8 -6 -4 -8 -14 -5 -22 4 -9 -1 -17 -15 -20 -12 -3 -18 -11 -15 -19 12
-30 -79 -3 -122 36 -38 36 -106 57 -141 43 -17 -6 -36 -6 -51 -1 -25 9 -113
25 -190 35 -29 4 -53 14 -67 29 -12 13 -30 24 -40 24 -19 0 -171 -33 -209 -45
-16 -5 -31 2 -57 25 -62 54 -129 60 -192 16 -25 -17 -42 -20 -99 -18 -50 2
-73 7 -81 19 -9 12 -20 14 -41 9 -40 -10 -194 -13 -194 -3 0 4 19 8 43 8 23 1
33 3 22 6 -11 3 -27 13 -35 22 -30 35 -103 66 -147 63 l-43 -3 0 -369 0 -370
108 5 c59 3 265 10 457 15 193 6 535 17 760 25 964 34 1132 38 1750 40 755 3
1194 13 1213 28 9 7 16 7 24 -1 7 -7 38 -12 70 -12 44 0 59 4 67 18 8 14 13
15 29 5 12 -7 66 -12 139 -12 118 -1 120 0 131 23 10 23 9 25 -21 28 -24 2
-32 8 -32 23 0 28 91 44 114 20 15 -15 14 -18 -6 -31 l-21 -15 24 -26 c23 -25
25 -25 38 -8 12 17 14 17 34 -3 17 -17 26 -19 59 -11 21 4 61 6 89 2 46 -5 52
-3 57 16 7 27 51 29 69 2 10 -15 30 -19 101 -23 79 -5 87 -4 87 13 0 22 26 38
50 32 10 -3 21 0 24 6 5 7 -5 11 -29 11 -25 0 -37 5 -42 18 -3 9 -13 25 -22
35 -13 15 -13 20 -1 27 7 4 24 4 37 -1 14 -5 32 -9 41 -9 13 0 13 2 -3 14 -22
16 -14 46 14 46 20 0 35 -25 25 -41 -3 -5 -2 -9 3 -9 4 -1 28 -5 51 -9 l44 -9
-6 33 c-5 27 -3 33 19 43 37 17 63 15 74 -6 11 -21 -3 -42 -26 -42 -40 0 9
-33 52 -35 6 0 10 -9 10 -20 0 -16 -6 -19 -34 -19 -20 1 -37 8 -43 18 -13 23
-48 21 -48 -3 0 -20 -25 -35 -41 -25 -18 10 -30 -6 -19 -27 7 -12 8 -37 3 -67
-5 -26 -7 -58 -5 -71 3 -22 7 -23 50 -16 60 9 75 9 145 0 31 -4 57 -11 57 -16
0 -4 -8 -6 -17 -4 -10 1 -24 -2 -31 -8 -7 -5 -54 -11 -104 -13 -50 -2 -93 -5
-95 -8 -9 -9 -10 -212 0 -223 5 -7 6 -27 3 -45 -3 -18 -6 -40 -5 -48 5 -91 3
-200 -6 -200 -5 0 -30 6 -55 14 -25 7 -52 11 -60 8 -13 -5 -13 -3 -1 11 7 10
25 17 40 17 14 1 37 7 50 14 l24 14 -21 11 c-24 13 -29 37 -10 43 9 3 9 11 -1
35 -9 23 -10 45 -2 89 12 73 12 144 -1 144 -5 0 -7 13 -3 28 4 20 -1 38 -18
64 -16 23 -22 40 -16 49 5 8 9 38 9 67 l0 52 -57 -5 c-32 -3 -76 -8 -98 -11
-22 -3 -108 -7 -190 -10 -165 -6 -167 -6 -210 -23 -16 -6 -37 -14 -45 -17 -8
-3 -42 -8 -75 -10 -68 -5 -101 -24 -42 -24 21 0 37 -5 37 -11 0 -8 4 -8 14 0
15 12 72 16 206 13 74 -2 165 2 165 8 0 1 8 3 18 5 10 2 21 -3 24 -12 3 -8 13
-13 24 -10 11 3 19 1 19 -4 0 -5 15 -9 33 -9 21 0 36 -7 44 -19 15 -23 8 -31
-29 -31 -15 0 -28 -5 -28 -11 0 -5 -4 -7 -10 -4 -5 3 -15 3 -21 -1 -6 -4 -55
-7 -109 -8 -57 -1 -103 -6 -111 -13 -8 -6 -25 -11 -39 -11 -14 0 -50 -6 -80
-14 -53 -13 -55 -15 -54 -45 1 -18 -4 -34 -11 -37 -18 -6 -39 20 -31 39 4 12
0 14 -22 10 -15 -2 -68 -5 -118 -6 l-91 -1 -16 -34 c-11 -23 -21 -32 -32 -28
-20 8 -19 24 3 40 15 12 13 13 -13 4 -16 -6 -39 -15 -51 -21 -14 -7 -32 -8
-57 -1 -30 9 -36 7 -40 -8 -3 -12 -18 -21 -41 -25 -31 -6 -34 -10 -25 -26 6
-12 20 -19 37 -19 17 0 37 -11 54 -29 22 -22 35 -28 65 -26 60 3 61 6 8 19
-39 9 -50 15 -50 31 0 21 33 34 44 17 4 -7 19 -6 44 3 20 7 37 9 37 4 0 -4 9
-10 19 -14 26 -8 34 -33 16 -51 -8 -9 -15 -24 -15 -34 0 -20 25 -50 41 -50 16
0 47 33 50 54 2 11 16 23 32 27 28 7 31 3 28 -34 -1 -9 5 -19 13 -22 9 -3 23
-7 31 -10 12 -4 13 -9 6 -24 -7 -12 -27 -21 -58 -26 -26 -4 -55 -13 -63 -20
-13 -11 -29 -12 -87 -3 -67 9 -73 12 -82 40 -9 26 -13 28 -32 17 -16 -8 -23
-8 -29 0 -5 9 -11 7 -21 -5 -12 -16 -12 -17 5 -11 14 6 17 4 12 -9 -3 -8 -6
-18 -6 -20 0 -13 -65 -26 -142 -29 -47 -2 -96 -9 -109 -15 -17 -10 -35 -9 -86
5 -50 14 -66 15 -78 5 -8 -6 -19 -9 -24 -5 -15 9 -84 -6 -74 -16 15 -15 395
-11 443 4 45 15 71 17 75 5 3 -7 6 -38 7 -68 3 -53 2 -55 -22 -53 -14 1 -86 5
-160 9 -74 3 -139 10 -145 14 -5 4 -38 4 -73 -1 -66 -9 -104 -7 -188 12 -38 9
-56 9 -72 0 -23 -12 -134 -14 -260 -4 l-83 6 3 31 c3 28 8 32 45 40 56 12 59
36 3 29 l-40 -6 0 42 c0 35 -4 43 -26 53 -21 10 -27 9 -35 -3 -9 -15 -14 -62
-11 -119 3 -53 -9 -66 -46 -48 -24 13 -40 13 -82 5 -36 -7 -98 -6 -208 2 -189
15 -489 34 -555 35 -26 0 -48 5 -48 11 -1 5 -3 29 -4 53 -4 51 -19 72 -51 72
-18 0 -24 -5 -24 -23 0 -13 -6 -29 -12 -36 -11 -10 -10 -15 5 -25 9 -7 17 -23
17 -34 0 -20 -4 -21 -62 -16 -35 3 -94 10 -133 15 -38 6 -105 9 -147 9 -43 -1
-78 3 -78 8 0 4 44 9 97 9 160 2 164 3 158 12 -3 5 -77 10 -165 10 -88 0 -165
3 -170 6 -6 4 -55 11 -109 15 -103 9 -147 23 -169 53 -19 25 -55 18 -62 -13
-6 -25 -40 -42 -40 -20 0 6 -10 11 -22 10 -44 -4 -193 3 -170 7 18 4 21 7 12
18 -6 8 -15 26 -19 42 -7 24 -10 26 -16 9 -5 -11 -3 -21 6 -26 7 -5 10 -13 5
-17 -4 -4 -15 2 -23 15 -18 26 -45 29 -42 5 4 -41 0 -44 -32 -28 -17 9 -37 14
-45 11 -8 -3 -14 -1 -14 3 0 5 5 11 12 13 7 3 9 11 4 24 -6 12 -10 15 -13 7
-3 -8 -22 -13 -44 -13 -35 0 -39 -3 -39 -25 0 -22 -2 -24 -20 -13 -26 16 -76
-1 -72 -25 4 -23 -10 -21 -26 3 -7 11 -19 20 -27 20 -8 0 -15 7 -15 16 0 12
-5 14 -18 8 -37 -17 -96 -13 -119 8 -18 17 -24 18 -45 7 -12 -6 -26 -16 -29
-21 -5 -9 -37 -11 -99 -7 -14 1 -51 -1 -82 -4 -31 -3 -60 -2 -63 2 -8 7 -19 8
-174 11 -102 2 -117 5 -131 23 -39 47 -40 26 -40 -556 0 -309 4 -557 8 -550 6
10 97 18 145 12 16 -2 16 -4 -3 -21 -13 -12 -28 -16 -44 -12 -13 3 -27 1 -30
-5 -6 -9 15 -16 79 -25 11 -2 26 5 33 15 16 23 52 25 52 4 0 -18 12 -19 28 -3
9 9 15 9 23 1 6 -6 26 -9 45 -6 33 5 64 -12 64 -36 0 -7 10 -9 24 -5 14 3 30
3 35 -1 19 -11 181 -16 181 -5 0 5 -7 10 -16 10 -8 0 -12 4 -9 10 3 6 -2 10
-12 10 -17 1 -17 2 2 16 11 8 26 12 34 9 8 -3 18 0 23 7 11 18 10 40 -2 33 -6
-3 -10 -1 -10 4 0 6 6 11 14 11 12 0 46 40 46 55 0 3 -9 5 -20 5 -11 0 -20 7
-20 15 0 22 27 19 40 -4 5 -11 10 -31 10 -45 0 -14 5 -26 10 -26 6 0 10 14 10
30 0 23 4 30 20 30 16 0 20 -7 20 -30 0 -34 6 -36 38 -14 27 19 29 44 2 44
-11 0 -20 4 -20 9 0 5 8 8 18 7 9 0 17 5 16 12 -1 6 -2 21 -3 32 0 11 -5 20
-11 20 -5 0 -7 -7 -4 -15 4 -8 1 -15 -6 -15 -7 0 -10 13 -8 33 2 27 8 33 31
35 19 2 27 9 27 23 0 21 16 26 23 7 4 -10 6 -10 6 0 1 7 15 12 34 12 23 0 41
8 57 25 28 29 33 30 55 9 19 -19 29 -12 30 19 0 16 7 23 27 25 18 2 28 9 28
20 0 15 2 15 10 2 6 -10 10 -11 10 -3 0 18 50 29 60 14 5 -10 10 -9 21 1 8 7
32 14 53 15 45 3 56 10 36 23 -11 7 -8 10 15 11 l30 1 -33 8 c-57 13 -57 24 0
34 34 6 37 5 42 -21 2 -15 3 -5 2 24 -2 43 1 56 18 72 14 14 26 17 36 11 8 -5
22 -4 33 2 11 5 34 8 53 5 33 -6 54 8 67 46 4 9 11 17 17 17 5 0 10 9 10 20 0
17 7 20 45 20 25 0 57 7 70 16 20 13 25 14 25 3 0 -11 3 -11 11 1 9 12 10 11
6 -8 -3 -12 -1 -20 4 -16 5 3 9 0 9 -5 0 -6 5 -11 11 -11 6 0 9 7 5 15 -6 17
21 35 50 33 11 -1 34 9 53 23 29 21 30 24 13 27 -14 2 -18 9 -15 23 6 23 21
25 30 4 5 -14 8 -14 24 1 18 16 19 16 19 -4 0 -18 6 -22 30 -22 23 0 30 -4 30
-20 0 -15 7 -20 29 -20 31 0 66 30 44 37 -29 10 -10 21 19 12 49 -14 58 -11
58 15 0 22 -2 23 -41 16 -22 -4 -46 -13 -52 -19 -22 -22 -39 -13 -32 18 7 33
-8 49 -30 31 -12 -10 -15 -9 -15 4 0 9 -6 16 -12 15 -24 -3 -38 1 -38 11 0 12
37 13 44 1 3 -5 19 -7 35 -6 25 2 32 -2 40 -24 l9 -26 1 25 c1 15 -5 32 -11
39 -11 10 -7 11 17 4 17 -4 50 -8 75 -7 25 1 35 -1 22 -3 -12 -3 -22 -8 -22
-13 0 -5 -6 -10 -12 -13 -7 -2 -3 -2 9 -1 12 2 23 -1 25 -8 3 -7 11 -9 24 -4
19 8 19 8 -1 16 -18 8 -17 9 8 9 15 1 27 7 28 14 0 6 5 -1 10 -18 6 -20 5 -31
-2 -34 -6 -2 0 -9 13 -15 12 -6 31 -29 41 -50 10 -21 21 -35 24 -32 4 4 10 33
14 66 10 84 18 90 125 85 110 -4 118 -5 104 -19 -5 -5 -10 -14 -10 -18 0 -12
78 -10 85 2 3 6 -5 10 -19 10 -25 0 -43 16 -32 28 4 3 15 1 24 -5 11 -6 50 -9
95 -7 42 2 77 0 77 -4 0 -4 15 -9 33 -10 24 -2 28 0 17 8 -11 7 -7 10 18 10
17 0 32 -5 32 -11 0 -7 9 -9 21 -6 12 3 32 1 46 -6 19 -8 26 -8 32 2 9 14 107
5 128 -11 14 -11 136 -13 153 -3 5 3 10 -1 10 -9 0 -9 5 -16 10 -16 6 0 10 -6
10 -14 0 -8 9 -24 19 -37 l19 -24 13 30 c6 17 11 39 11 50 -1 14 1 16 7 6 7
-10 13 -10 29 -2 26 14 65 14 57 1 -8 -12 5 -13 25 -1 8 6 19 7 25 3 18 -11
46 -12 63 -3 12 6 42 4 87 -5 39 -8 97 -14 130 -13 68 1 246 -9 288 -17 15 -3
25 -10 22 -14 -6 -10 56 -7 73 4 6 3 13 3 16 -2 3 -5 18 -7 34 -4 16 2 33 -1
36 -7 11 -17 54 -13 65 7 11 19 12 17 30 -53 6 -22 17 -49 25 -60 12 -16 16
-17 29 -6 9 7 21 28 27 47 6 19 18 34 26 34 8 0 14 10 14 23 0 22 1 22 13 -3
9 -17 20 -24 36 -23 12 2 33 -4 46 -13 27 -17 45 -12 45 14 0 13 2 13 15 -4 8
-10 15 -14 15 -8 0 13 70 -15 70 -28 0 -4 8 -8 18 -8 14 0 15 2 2 10 -10 7 13
9 73 7 64 -2 91 -7 97 -18 5 -8 13 -14 17 -15 4 0 21 -6 37 -13 16 -6 37 -9
46 -6 10 3 21 1 25 -5 3 -5 26 -10 51 -10 24 0 44 -4 44 -8 0 -10 90 -32 131
-32 16 0 29 -4 29 -9 0 -16 38 -23 60 -11 22 12 27 36 8 43 -9 4 -9 6 -1 6 6
1 30 -15 53 -34 32 -27 51 -35 80 -35 21 0 41 -6 43 -12 4 -8 6 -7 6 4 2 36
-11 48 -50 48 -21 0 -39 5 -39 10 0 6 23 10 50 10 38 0 50 -4 50 -15 0 -19 29
-19 50 0 14 13 16 11 15 -12 0 -23 5 -28 35 -34 23 -5 37 -3 42 4 5 8 8 6 8
-5 0 -25 20 -32 34 -12 7 9 18 14 24 10 8 -4 12 0 12 11 1 15 3 14 14 -6 8
-15 16 -20 20 -12 11 18 20 13 34 -19 12 -25 16 -28 32 -18 11 7 22 9 26 6 10
-11 -6 -28 -25 -28 -20 0 -54 -33 -44 -43 13 -13 45 -7 99 20 48 23 58 25 76
14 15 -9 23 -10 31 -2 17 17 48 13 63 -6 10 -15 28 -18 91 -18 45 0 87 -5 100
-13 22 -12 31 -12 98 4 26 5 27 7 11 13 -19 7 -19 8 3 30 18 18 30 22 53 17
17 -3 46 -6 64 -6 42 0 43 -11 4 -28 -16 -8 -30 -20 -30 -27 0 -7 -8 -16 -17
-18 -10 -3 7 -3 37 -2 49 3 57 1 65 -18 9 -19 19 -22 77 -25 58 -2 67 -1 62
13 -6 16 3 19 44 15 13 -1 34 6 47 14 25 16 85 22 85 8 0 -17 -43 -31 -99 -33
-57 -2 -61 -4 -61 -25 0 -23 3 -24 68 -22 62 1 157 26 107 28 -19 1 -19 1 -2
11 14 8 16 14 6 25 -6 8 -9 18 -5 22 4 4 15 -4 25 -17 9 -12 24 -22 32 -21 36
5 58 -1 53 -14 -5 -13 8 -18 95 -33 26 -4 38 -1 47 12 18 25 36 9 29 -26 l-7
-29 54 -1 c43 0 49 -2 30 -10 -39 -15 -14 -29 54 -29 77 0 88 -20 12 -21 -51
-1 -51 -1 -18 -9 37 -9 96 -6 195 12 160 28 194 27 182 -5 -7 -19 25 -26 65
-16 15 4 62 8 105 8 61 0 83 4 105 21 16 12 42 20 65 20 21 0 34 -4 28 -8 -5
-4 -16 -17 -23 -30 -17 -31 1 -37 83 -28 55 6 64 4 59 -9 -4 -10 -19 -15 -43
-15 -20 0 -54 -3 -75 -7 -27 -4 -37 -3 -32 5 14 22 -163 27 -236 6 -31 -9 -19
-24 20 -25 l37 -1 -52 -16 c-54 -15 -65 -25 -38 -36 8 -3 15 -1 15 5 0 6 5 7
12 3 19 -12 95 -8 244 12 80 10 145 24 153 32 7 7 20 11 28 8 8 -3 17 -6 19
-6 2 0 4 -4 4 -10 0 -5 -13 -10 -29 -10 -16 0 -31 -5 -33 -11 -2 -7 -47 -15
-108 -20 -143 -12 -250 -26 -257 -33 -15 -15 15 -20 110 -18 59 1 96 -2 88 -7
-31 -20 114 -30 266 -19 87 7 93 6 104 -13 8 -15 17 -19 35 -15 16 4 30 0 44
-14 23 -23 40 -26 40 -6 0 8 12 17 26 20 20 5 32 2 46 -13 19 -21 19 -21 -6
-21 -14 0 -28 5 -31 10 -8 13 -35 -13 -35 -35 0 -9 -6 -15 -12 -12 -7 2 -12
12 -12 21 2 13 -9 16 -63 16 -55 0 -64 2 -54 14 9 10 8 15 -4 20 -10 4 -15 -1
-15 -14 0 -11 -4 -20 -10 -20 -5 0 -10 -15 -10 -34 0 -19 -4 -38 -10 -41 -6
-4 -10 10 -10 34 0 22 -5 42 -12 44 -10 4 -10 6 0 6 20 2 14 21 -7 21 -11 0
-21 6 -24 13 -4 10 -7 10 -18 0 -11 -11 -10 -13 5 -13 13 0 17 -5 13 -20 -3
-11 -1 -18 4 -14 5 3 9 -12 9 -33 0 -34 -3 -39 -25 -41 -13 -1 -27 3 -30 8 -3
6 -1 10 4 10 6 0 11 9 11 20 0 11 -4 20 -10 20 -5 0 -10 6 -10 13 0 16 -38 40
-50 32 -6 -4 -10 -12 -10 -20 0 -9 -15 -15 -47 -17 -36 -2 -49 -7 -51 -20 -3
-15 4 -18 37 -18 23 0 41 -5 41 -10 0 -6 -10 -10 -22 -9 -13 1 -38 -1 -55 -6
-32 -7 -33 -9 -33 -61 0 -29 5 -56 10 -59 6 -3 10 -15 10 -26 0 -12 7 -19 20
-19 13 0 20 7 20 18 0 21 18 42 36 42 15 0 23 -67 10 -80 -15 -15 -26 -12 -26
6 0 12 -7 10 -31 -10 -38 -33 -49 -33 -49 -1 0 14 -4 25 -10 25 -5 0 -10 14
-10 30 0 23 -4 30 -20 30 -11 0 -20 5 -20 10 0 6 -9 10 -20 10 -11 0 -20 -4
-20 -10 0 -5 -9 -10 -20 -10 -16 0 -20 -7 -20 -30 0 -27 3 -30 30 -30 17 0 30
-4 30 -10 0 -5 -17 -10 -38 -10 -31 0 -41 -5 -52 -25 -7 -14 -10 -28 -5 -32 4
-5 10 -2 12 5 6 14 83 17 83 2 0 -5 25 -10 55 -10 45 0 53 -3 48 -16 -4 -12
-23 -15 -100 -13 -52 1 -99 -3 -104 -8 -14 -14 16 -43 43 -43 17 0 18 -2 8
-15 -7 -8 -16 -15 -21 -15 -5 0 -9 7 -9 15 0 8 -7 15 -16 15 -8 0 -12 -5 -8
-11 4 -7 -1 -9 -12 -7 -11 2 -18 11 -16 21 2 9 -1 17 -5 17 -87 5 -126 3 -134
-7 -8 -8 -4 -10 13 -6 18 4 20 3 8 -6 -10 -7 -11 -11 -2 -11 6 0 12 -4 12 -10
0 -5 -18 -10 -40 -10 -30 0 -40 4 -40 16 0 12 -7 10 -31 -10 -38 -33 -56 -33
-71 -1 -14 31 -22 31 -36 0 -6 -14 -20 -25 -29 -25 -17 -1 -44 -16 -124 -67
-19 -13 -50 -23 -71 -23 -20 0 -38 -5 -40 -12 -3 -7 -27 -11 -66 -11 -44 1
-62 -3 -62 -12 0 -7 -7 -15 -15 -19 -10 -4 -15 1 -15 15 0 20 -1 20 -30 -4
-18 -16 -48 -28 -80 -32 -27 -4 -50 -11 -50 -16 0 -5 -18 -9 -40 -9 -22 0 -40
5 -40 10 0 6 18 10 40 10 29 0 40 4 40 15 0 11 -13 15 -54 15 -35 0 -58 -5
-66 -15 -7 -8 -9 -15 -4 -15 11 0 -18 -20 -28 -20 -5 0 -8 7 -8 15 0 8 -8 15
-17 15 -13 0 -15 -2 -5 -8 24 -15 -21 -41 -89 -51 -208 -31 -274 -43 -285 -52
-7 -5 -39 -10 -71 -9 -32 0 -84 -4 -115 -9 -32 -5 -108 -11 -169 -13 -67 -2
-114 -8 -120 -14 -5 -7 -19 -10 -29 -7 -14 4 -20 0 -20 -11 0 -9 5 -16 10 -16
6 0 10 -18 10 -40 0 -33 -3 -40 -20 -40 -17 0 -20 7 -20 40 0 36 -13 54 -22
31 -5 -15 -279 -17 -305 -3 -19 11 -22 10 -17 -3 6 -15 -9 -20 -53 -16 -13 1
-23 -3 -23 -8 0 -7 -17 -8 -44 -5 -34 5 -49 3 -61 -10 -10 -9 -34 -16 -58 -17
-118 -2 -387 -29 -464 -47 -23 -5 -44 -8 -46 -5 -2 2 -31 5 -65 8 -59 3 -60 3
-64 -25 l-4 -29 108 1 c59 1 108 5 108 9 0 5 23 5 51 2 36 -4 53 -2 59 7 9 15
149 29 345 34 133 4 210 20 170 36 -11 5 31 6 93 3 78 -3 112 -2 112 6 0 7 28
11 80 11 63 0 80 -3 80 -14 0 -16 -66 -32 -170 -41 -36 -2 -101 -10 -145 -15
-44 -6 -123 -13 -175 -16 -96 -4 -164 -13 -255 -32 -27 -6 -87 -10 -132 -11
-100 0 -161 -10 -141 -22 7 -5 23 -9 36 -9 19 0 22 -4 17 -22 -4 -16 -3 -19 3
-9 7 9 25 12 60 10 29 -2 48 0 44 5 -3 5 2 6 12 3 10 -4 21 -7 26 -7 4 0 11
-12 14 -26 6 -23 11 -25 34 -20 15 4 51 10 80 13 44 5 52 3 52 -11 0 -9 8 -16
21 -16 11 0 17 -5 14 -10 -3 -6 -20 -10 -36 -10 -18 0 -28 -4 -24 -10 3 -5 14
-10 25 -10 10 0 21 -8 24 -17 6 -13 9 -14 15 -5 6 10 12 6 25 -12 11 -18 25
-26 46 -26 16 0 31 -4 34 -9 3 -4 17 -6 31 -3 20 3 27 0 32 -16 3 -15 15 -23
37 -26 162 -26 174 -29 180 -49 3 -14 11 -18 26 -14 12 3 37 -1 55 -9 19 -8
57 -14 84 -14 54 0 72 -12 44 -30 -16 -10 -16 -11 2 -4 11 4 36 9 55 11 35 3
35 3 -10 -15 -41 -17 -50 -17 -93 -5 -27 8 -54 12 -60 9 -7 -2 -3 -5 8 -6 18
-1 98 -38 85 -40 -3 0 -35 9 -73 19 -37 11 -67 18 -67 16 0 -3 -11 0 -25 5
-14 5 -36 12 -48 14 -49 10 -337 85 -346 90 -5 4 -69 22 -143 41 -73 19 -200
55 -283 80 -82 25 -188 56 -235 70 -140 40 -296 92 -353 119 -37 18 -71 26
-109 26 -61 0 -289 33 -383 55 -33 8 -100 21 -150 30 -49 9 -117 22 -150 30
-33 7 -109 23 -170 35 -210 43 -427 100 -456 121 -23 16 -38 19 -72 14 -51 -8
-136 11 -527 121 -30 9 -62 17 -70 19 -8 3 -53 16 -100 31 -47 14 -105 32
-130 39 -109 31 -176 58 -196 80 -18 19 -28 22 -50 16 -33 -8 -222 30 -544
109 -113 28 -224 54 -247 59 -23 5 -54 16 -67 25 -14 9 -38 16 -53 16 -29 0
-140 28 -308 76 -49 14 -106 29 -125 33 -19 5 -52 15 -73 24 -20 9 -61 21 -90
26 -28 6 -62 13 -74 17 -22 6 -23 4 -23 -70 l0 -76 40 -25 c28 -18 46 -23 56
-17 9 5 36 3 67 -6 64 -17 106 -28 177 -44 30 -7 61 -18 68 -25 7 -7 25 -13
40 -13 14 0 44 -6 67 -14 87 -31 180 -56 210 -56 17 0 35 -4 41 -9 5 -5 38
-14 74 -20 112 -17 233 -42 249 -50 9 -5 36 -12 61 -16 25 -3 71 -15 103 -26
31 -10 71 -19 88 -19 16 0 42 -6 57 -14 15 -7 49 -17 76 -21 27 -4 60 -14 74
-23 17 -11 45 -15 92 -14 47 1 72 -3 80 -13 6 -7 41 -17 78 -20 37 -4 83 -14
102 -22 19 -9 54 -20 78 -24 23 -5 61 -13 85 -18 72 -15 278 -71 356 -97 41
-14 97 -30 125 -36 64 -13 126 -44 126 -62 0 -7 7 -20 16 -27 14 -11 21 -10
46 4 28 16 35 16 77 4 25 -8 93 -29 151 -46 175 -53 329 -100 441 -137 59 -19
112 -34 118 -34 7 0 53 -15 104 -34 51 -18 133 -46 182 -61 50 -16 95 -32 100
-36 6 -3 41 -17 78 -29 51 -17 67 -27 62 -38 -3 -8 0 -21 6 -28 15 -19 76 -18
86 1 8 13 15 13 63 -1 30 -9 74 -18 98 -21 23 -3 42 -10 42 -15 0 -7 -17 -8
-45 -5 -35 5 -43 4 -39 -8 5 -11 -12 -14 -85 -17 -74 -2 -91 0 -95 12 -3 11
-4 11 -5 -2 -1 -19 -26 -25 -36 -9 -3 5 -30 7 -60 4 -57 -6 -67 0 -37 24 13
11 14 16 4 20 -10 4 -10 8 -1 19 6 8 8 14 3 15 -5 0 -22 2 -39 5 -16 2 -68 5
-115 7 -47 2 -89 5 -95 7 -5 2 -23 -2 -38 -8 -35 -15 -77 -16 -77 -2 0 6 21
10 48 11 35 0 42 3 27 9 -11 5 -31 9 -45 9 -40 2 -56 16 -41 35 16 20 20 18
-64 22 -38 2 -124 7 -190 12 -118 9 -119 9 -37 11 113 2 107 21 -7 21 -59 0
-98 5 -117 15 -27 14 -29 14 -32 -5 -3 -20 -35 -36 -52 -25 -5 3 -10 15 -10
25 0 10 -5 22 -10 25 -6 3 -10 -3 -10 -14 0 -17 -6 -21 -30 -21 -27 0 -30 3
-30 31 0 24 -3 30 -16 25 -9 -3 -18 -6 -20 -6 -2 0 -4 -5 -4 -11 0 -16 -26
-39 -44 -39 -9 0 -16 7 -16 15 0 8 9 15 20 15 14 0 20 7 20 24 0 13 3 31 6 40
5 12 0 16 -20 16 -16 0 -26 -6 -26 -15 0 -11 -11 -15 -40 -15 -32 0 -40 -4
-40 -18 0 -9 9 -23 20 -30 31 -19 24 -32 -19 -32 -25 0 -41 -5 -45 -15 -7 -20
-29 -19 -50 4 -15 16 -15 19 -1 24 24 10 17 41 -12 55 -38 17 -53 15 -53 -8 0
-16 -7 -20 -30 -20 -23 0 -30 -4 -30 -20 0 -11 -4 -20 -10 -20 -5 0 -10 9 -10
20 0 11 5 20 10 20 6 0 10 9 10 20 0 11 7 23 15 26 20 8 9 24 -16 24 -10 0
-19 -7 -19 -15 0 -9 -9 -15 -25 -15 -18 0 -25 5 -25 18 0 10 -3 22 -7 26 -12
12 -12 36 0 36 7 0 4 7 -5 14 -10 7 -18 26 -19 42 -1 25 -2 24 -10 -11 -7 -27
-6 -41 1 -43 5 -2 10 -19 10 -38 0 -33 -1 -34 -42 -35 -24 0 -37 -3 -30 -6 6
-2 12 -9 12 -14 0 -12 -147 -12 -155 1 -3 6 -1 10 4 10 7 0 11 30 11 80 0 47
4 80 10 80 6 0 10 -33 10 -79 l0 -80 35 2 c35 2 35 2 35 49 0 40 -4 50 -25 64
-14 9 -25 22 -25 28 0 12 -50 46 -68 46 -7 0 -9 -22 -6 -57 2 -32 1 -51 -3
-43 -3 8 -14 21 -25 28 -10 7 -18 20 -18 27 0 14 -14 20 -65 27 -12 2 -20 11
-20 22 0 10 -11 26 -24 35 -24 15 -24 15 -18 -11 5 -19 3 -28 -9 -32 -23 -9
-24 -8 -24 17 0 48 -19 59 -109 59 -77 0 -84 -2 -106 -27 -12 -15 -28 -24 -34
-21 -16 10 -14 26 4 26 8 0 15 9 15 20 0 19 -7 20 -185 20 l-185 0 0 60 c0 50
3 60 18 61 9 1 -3 6 -27 11 -29 6 -46 6 -50 0 -3 -6 -13 -10 -21 -10 -50 3
-80 -3 -80 -17 0 -19 -29 -19 -36 0 -4 8 -15 15 -25 15 -15 0 -19 -7 -19 -40
0 -34 -3 -40 -20 -40 -11 0 -23 -6 -26 -14 -7 -18 -34 -9 -34 11 0 9 -6 13
-15 9 -12 -4 -15 3 -15 34 0 54 27 56 32 3 2 -27 8 -39 21 -41 15 -3 17 6 17
78 0 78 -1 81 -27 91 -18 7 -30 6 -37 -1 -7 -7 -5 -10 7 -10 10 0 17 -8 17
-19 0 -17 -9 -20 -80 -23 -44 -2 -80 0 -80 4 0 4 -30 5 -67 2 -40 -3 -78 0
-95 7 -30 12 -38 29 -13 29 8 0 15 -5 15 -10 0 -6 8 -5 20 2 12 8 20 24 20 40
0 39 37 40 42 1 2 -17 10 -27 23 -29 18 -3 20 1 17 36 -4 39 -5 40 -46 42 -22
1 -60 1 -83 0 -23 -2 -44 2 -48 8 -9 15 -25 12 -25 -5 0 -11 -11 -15 -39 -15
-31 0 -44 -6 -60 -27 l-22 -28 -15 23 c-13 17 -26 22 -61 22 -27 0 -42 4 -38
10 3 6 40 10 81 10 41 0 74 4 74 9 0 12 -56 31 -91 31 -19 0 -30 6 -34 20 -3
11 -15 20 -26 20 -10 0 -19 5 -19 10 0 6 -16 10 -35 10 -33 0 -35 2 -35 34 0
28 -4 35 -26 40 -14 4 -45 4 -69 0 -41 -6 -68 7 -45 21 15 9 12 25 -5 25 -9 0
-15 -10 -15 -26 0 -20 -4 -25 -16 -20 -9 3 -22 6 -30 6 -8 0 -14 5 -14 10 0 6
9 10 20 10 31 0 23 17 -11 24 -28 5 -30 8 -18 23 12 15 12 16 -6 9 -30 -13
-134 -16 -140 -6 -4 6 -10 10 -16 10 -5 0 -9 -596 -9 -1570 l0 -1570 5400 0
5400 0 0 3500 c0 1925 -1 3500 -3 3500 -2 0 -24 -13 -49 -29z m-4733 -1328 c8
-19 18 -23 52 -23 29 0 45 5 52 18 7 11 13 13 18 6 5 -6 16 -13 26 -17 55 -21
-21 -34 -158 -28 -22 1 -98 -5 -170 -14 -157 -18 -145 -18 -145 0 0 10 10 15
29 15 16 0 42 4 56 10 14 5 49 12 78 14 28 2 53 9 55 15 2 6 12 11 22 11 10 0
22 5 25 11 11 17 49 6 60 -18z m-8 -594 c26 1 50 -34 32 -45 -8 -4 -10 -29 -6
-70 3 -48 1 -66 -10 -75 -11 -9 -17 -9 -26 1 -9 9 -9 14 -1 17 11 4 9 111 -2
122 -9 10 -306 0 -379 -13 -22 -3 -52 -3 -67 1 -26 8 -26 9 -9 29 9 12 31 25
48 28 26 6 32 4 38 -14 6 -18 13 -20 48 -16 23 2 91 5 150 5 102 1 109 2 114
22 4 16 11 19 27 14 11 -4 31 -6 43 -6z m-1527 -670 c24 -7 41 -20 48 -38 l12
-26 -5 31 c-4 28 -1 31 16 27 10 -3 22 -9 25 -14 3 -5 15 -9 26 -9 12 0 29 -7
39 -16 19 -18 15 -46 -6 -38 -7 3 -16 1 -20 -5 -3 -6 -17 -11 -31 -11 -16 0
-24 -6 -24 -18 0 -15 -8 -18 -53 -17 -59 1 -77 9 -77 31 0 8 5 12 10 9 6 -3
10 1 10 9 0 9 -6 15 -12 14 -9 -2 -14 12 -16 40 -3 46 0 48 58 31z m-2486
-1880 c11 -110 12 -106 -44 -111 -28 -3 -59 -13 -69 -22 -18 -17 -22 -16 -70
1 -47 16 -67 33 -40 33 6 0 17 7 25 15 15 14 44 11 44 -6 0 -5 12 -9 26 -9 23
0 24 2 10 15 -8 8 -19 15 -25 15 -22 0 -10 18 17 24 67 17 82 29 82 68 0 30 4
38 19 38 15 0 19 -11 25 -61z m163 -49 c3 -17 12 -30 21 -30 26 0 53 -40 41
-61 -13 -25 -23 -24 -41 3 -15 22 -15 22 -20 -10 -4 -28 -2 -32 20 -32 14 0
22 -5 20 -12 -3 -7 -12 -13 -21 -12 -9 0 -35 1 -57 2 -39 2 -40 3 -40 40 0 21
5 43 12 50 9 9 8 12 -5 12 -13 0 -17 -9 -17 -40 0 -29 -4 -40 -15 -40 -11 0
-15 11 -15 40 0 25 -5 40 -12 40 -27 0 18 20 45 20 23 0 31 6 40 30 6 17 17
30 24 30 8 0 16 -13 20 -30z m2269 -430 c8 0 12 5 9 11 -8 12 73 6 102 -8 10
-5 56 -18 102 -29 63 -14 87 -25 99 -41 8 -14 25 -23 41 -24 18 -1 20 -3 8 -6
-28 -7 -67 5 -67 21 0 21 -34 26 -194 25 -122 -1 -150 2 -165 15 -10 9 -28 16
-41 16 -18 0 -20 3 -11 14 6 7 22 11 36 8 14 -2 25 0 25 6 0 16 34 20 38 5 2
-7 10 -13 18 -13z"/>
<path d="M1571 5473 c-27 -19 -5 -26 90 -28 50 0 93 -5 97 -11 4 -5 21 -9 37
-8 17 0 35 -2 40 -6 16 -11 102 -18 116 -10 21 13 2 39 -33 44 -18 3 -78 12
-133 21 -109 17 -189 17 -214 -2z"/>
<path d="M5280 2589 c0 -4 -55 -6 -122 -5 -68 1 -104 0 -80 -2 72 -6 46 -21
-34 -20 -48 1 -78 -2 -83 -10 -5 -8 -17 -9 -41 -2 -51 15 -68 12 -81 -11 -11
-21 -10 -21 73 -14 45 4 88 10 93 13 13 8 215 16 294 12 18 -1 38 3 44 9 6 6
41 11 78 11 47 0 70 4 79 15 11 14 -1 15 -104 14 -64 -1 -116 -6 -116 -10z"/>
</g>
</svg>
